<svg version="1.1" id="Layer_1" xmlns="http://www.w3.org/2000/svg" xmlns:xlink="http://www.w3.org/1999/xlink" x="0px" y="0px"
	 width="100%" viewBox="0 0 50 50" enable-background="new 0 0 50 50" xml:space="preserve">
<path fill="#FEFBFB" opacity="1.000000" stroke="none" 
	d="
M1.313441,23.152412 
	C1.000000,16.530418 1.077745,10.059329 0.952259,3.592182 
	C0.914986,1.671286 1.055071,0.904858 3.386036,0.926888 
	C18.480375,1.069547 33.577557,1.079225 48.671577,0.920498 
	C51.131504,0.894629 51.064480,1.848289 51.036488,3.649582 
	C50.941128,9.785907 51.000000,15.924628 51.000000,22.531218 
	C41.799454,23.056570 34.762424,28.037367 27.827013,33.220104 
	C26.796684,33.990055 25.491705,34.606922 25.315790,36.487659 
	C27.331305,37.552715 28.566507,35.914944 29.906012,34.995853 
	C34.852329,31.601978 39.716080,28.085192 45.182411,25.527248 
	C46.843781,24.749821 48.447552,23.845640 50.671146,23.886417 
	C51.000000,31.965868 50.933205,39.932659 51.043167,47.897007 
	C51.073750,50.111908 50.909534,51.123013 48.126884,51.087807 
	C33.359200,50.900990 18.586302,50.886993 3.819218,51.096226 
	C0.897775,51.137623 0.948172,49.929432 0.970168,47.843140 
	C1.047146,40.541908 1.000000,33.239372 1.000000,25.468666 
	C4.464685,23.030893 8.525945,22.114510 12.174550,18.729399 
	C7.998726,20.169022 5.385068,23.068975 1.313441,23.152412 
z"/>
<path fill="#E52744" opacity="1.000000" stroke="none" 
	d="
M51.000000,23.750000 
	C42.792858,27.277456 35.485416,32.082539 28.602987,37.521568 
	C26.486586,39.194118 24.753574,39.510574 23.200518,37.329128 
	C21.431126,34.843811 24.292723,34.392918 25.416471,33.529434 
	C30.809223,29.385687 36.586864,25.847607 42.776890,22.970268 
	C45.380363,21.760084 47.768501,21.330568 50.602478,23.074524 
	C51.000000,23.000000 51.000000,23.500000 51.000000,23.750000 
z"/>
<path fill="#2C4682" opacity="1.000000" stroke="none" 
	d="
M1.000000,23.333332 
	C4.351460,22.457888 6.698089,19.895323 9.714464,18.657511 
	C11.378410,17.974684 12.904735,16.769264 15.255100,18.851698 
	C10.175723,20.082701 7.516324,25.715908 1.318616,24.712486 
	C1.000000,24.555555 1.000000,24.111111 1.000000,23.333332 
z"/>
<path fill="#E52B48" opacity="1.000000" stroke="none" 
	d="
M30.582066,20.598957 
	C34.476105,19.543041 37.700302,16.005451 42.594528,19.313110 
	C33.702301,22.700033 26.126976,27.143448 19.092695,32.503628 
	C17.446003,33.758427 16.158192,32.651329 15.284884,31.509315 
	C14.170872,30.052542 15.882614,29.530586 16.677124,28.936529 
	C20.922699,25.762106 25.425322,22.994873 30.582066,20.598957 
z"/>
<path fill="#223D7C" opacity="1.000000" stroke="none" 
	d="
M18.404018,23.465866 
	C16.056398,25.045982 13.970115,26.392115 11.949080,27.829956 
	C10.606517,28.785107 9.268572,28.554693 8.427666,27.452639 
	C7.030851,25.622032 9.208962,25.350393 10.057215,24.768309 
	C12.370942,23.180595 14.814591,21.778074 17.239511,20.358103 
	C18.678562,19.515430 20.523439,19.401403 21.140081,20.935511 
	C21.741159,22.430899 19.521694,22.442982 18.404018,23.465866 
z"/>
<path fill="#E73B56" opacity="1.000000" stroke="none" 
	d="
M20.756245,17.372780 
	C19.360899,16.850822 18.062084,16.956587 17.284206,15.486805 
	C21.514816,13.460944 24.719053,16.390162 28.540585,17.322023 
	C25.843384,19.363646 25.843384,19.363646 20.756245,17.372780 
z"/>
<path fill="#E94860" opacity="1.000000" stroke="none" 
	d="
M31.370171,15.916403 
	C28.747824,15.278687 26.497480,14.552023 23.225885,13.495584 
	C27.117140,11.824253 29.531418,13.465945 32.327637,14.426098 
	C32.507118,15.174018 32.214386,15.567458 31.370171,15.916403 
z"/>
<path fill="#E94861" opacity="1.000000" stroke="none" 
	d="
M31.257652,16.190346 
	C31.323280,15.659892 31.648396,15.314435 32.296738,14.807905 
	C33.335140,14.986235 34.955578,14.599455 34.412479,15.990010 
	C33.956169,17.158340 32.592922,16.947279 31.257652,16.190346 
z"/>
</svg>