<?xml version="1.0"?><svg version="1.2" baseProfile="tiny-ps" viewBox="0 0 192 192" xmlns="http://www.w3.org/2000/svg" xmlns:xlink="http://www.w3.org/1999/xlink"><title>Bank of America</title><g><g fill="#fffdfe" transform="matrix(.1 0 0 -.1 0 192)"><path d="M0 960V0h1920v1920H0V960z"/></g><g fill="#efc4ce" transform="matrix(.1 0 0 -.1 0 192)"><path d="m875 1463-50-15 20-8c11-5 74-25 140-45 66-21 144-48 174-61l54-24 59 16c32 9 61 20 63 24l5 7-93 36c-129 49-258 87-293 86-16 0-51-7-79-16zm-232-81c-35-14-63-28-63-31s51-22 113-41c61-19 146-50 187-68l75-32 67 27c38 16 68 31 68 35 0 14-272 113-360 130l-25 6-62-26zm-328-150c-126-66-303-171-311-184l-5-8 58-26 58-26 25 15c14 8 72 44 129 80s146 87 197 114c52 26 94 51 94 55 0 8-88 38-114 38-12 0-70-26-131-58zm1025 22-105-35-160-79c-198-98-404-226-549-343l-29-23 64-45c35-25 69-48 75-52l11-7 88 66c47 36 148 106 223 156l137 90 166 82c91 46 209 98 262 117s97 36 97 39c0 11-130 70-153 70-12 0-69-16-127-36zm-779-110c-63-36-161-97-218-136l-104-69 3-10c2-5 30-25 63-44l61-34 114 81c63 44 160 106 215 139 55 32 107 63 115 68l15 9-67 31c-37 17-71 31-75 31-5 0-59-30-122-66zm1093-43c-123-51-296-142-429-226-110-69-341-231-403-283l-34-28 82-62c44-34 83-62 86-62s57 41 121 91c213 166 500 346 729 456l114 55-5 8c-8 13-145 90-158 89-7 0-53-17-103-38zm-597-618c-4-3-7-15-7-25v-18h48l4 13c3 6 3 18 1 25l-5 12h-17c-10 0-21-3-24-7z"/></g><g fill="#ef7386" transform="matrix(.1 0 0 -.1 0 192)"><path d="m886 1463-49-15 160-53c88-29 172-59 188-67l28-15 51 15c28 8 55 18 59 22l8 7-108 40c-116 44-250 84-274 82-8-1-36-8-63-16zm-243-85c-29-11-53-24-53-27 0-4 24-13 53-20 59-15 240-81 282-104l28-14 64 26c34 14 63 29 63 33 0 17-320 129-365 127-11 0-44-10-72-21zm-319-144c-58-30-156-85-216-121l-110-65 8-7c5-4 32-17 59-30l51-22 119 76c66 42 166 101 223 132 56 30 102 56 102 58 0 4-104 35-119 35-6 0-58-25-117-56zm1061 32c-175-57-381-156-571-274-121-75-304-207-304-219 0-7 109-82 131-91 5-2 64 37 131 86 68 50 170 120 228 157 133 84 410 222 523 260 48 16 87 32 87 35 0 8-128 70-143 69-6 0-43-11-82-23zm-786-103c-96-52-359-222-359-232 0-4 29-23 64-41l65-35 33 25c84 62 232 160 322 212l98 57-36 15c-20 9-51 22-69 30l-33 15-85-46zm1108-45c-87-30-359-168-480-245-124-79-336-228-392-276l-38-33 69-53c38-30 74-58 80-62l11-9 94 76c111 89 393 279 534 360 55 31 153 82 217 113l117 57-57 34c-31 18-66 39-77 46l-20 12-58-20zm-653-643-7-16 11-11 11-11 15 6 14 6-2 18-3 18-16 3-17 3-6-16z"/></g><g fill="#7587af" transform="matrix(.1 0 0 -.1 0 192)"><path d="m902 1463-53-16 108-33c59-18 142-47 183-64l75-31 45 12c25 7 49 15 53 19l9 8-84 30c-75 27-231 77-268 86-8 3-39-3-68-11zm-250-85-53-21 8-7c4-3 35-14 68-24s110-38 172-62l111-44 24 9c13 5 41 17 62 26l39 17-44 20c-54 24-263 94-304 101l-30 6-53-21zm-328-144c-58-30-156-85-216-121l-110-65 8-7c5-4 32-17 59-30l51-22 119 76c66 42 166 101 223 132 56 30 102 56 102 58 0 4-104 35-119 35-6 0-58-25-117-56zm1030 15-119-39-160-79-160-79-120-77c-130-83-287-196-281-203 2-2 32-23 67-47l62-44 11 6c6 4 45 33 87 64 42 32 137 98 210 146l134 88 170 85 170 86 88 29c48 16 87 32 87 35s-29 20-64 37l-63 32-119-40zm-755-86c-96-52-359-222-359-232 0-4 29-23 64-41l65-35 33 25c84 62 232 160 322 212l98 57-36 15c-20 9-51 22-69 30l-33 15-85-46zm1066-67c-111-46-271-127-390-199-182-109-464-312-462-332 1-10 132-115 143-115 3 0 54 38 112 84 213 167 521 360 745 466l99 47-70 41c-39 23-76 42-84 42-7-1-49-16-93-34z"/></g><g fill="#e61437" transform="matrix(.1 0 0 -.1 0 192)"><path d="m902 1463-53-16 108-33c59-18 142-47 183-64l75-31 45 12c25 7 49 15 53 19l9 8-84 30c-75 27-231 77-268 86-8 3-39-3-68-11zm-250-85-53-21 8-7c4-3 35-14 68-24s110-38 172-62l111-44 24 9c13 5 41 17 62 26l39 17-44 20c-54 24-263 94-304 101l-30 6-53-21zm-309-140c-54-27-152-82-217-120L6 1047l45-23c24-13 50-23 57-24 8 0 61 30 119 66s154 93 214 127c60 33 108 61 107 62-2 2-26 10-55 18l-52 16-98-51zm1011 11-119-39-160-79-160-79-120-77c-130-83-287-196-281-203 2-2 32-23 67-47l62-44 11 6c6 4 45 33 87 64 42 32 137 98 210 146l134 88 170 85 170 86 88 29c48 16 87 32 87 35s-29 20-64 37l-63 32-119-40zm-779-105c-118-66-325-202-325-212 0-4 26-22 59-40l58-32 79 57c101 72 199 136 291 188l73 42-59 27c-32 14-62 26-67 26s-54-25-109-56zm1090-48c-111-46-271-127-390-199-182-109-464-312-462-332 1-10 132-115 143-115 3 0 54 38 112 84 213 167 521 360 745 466l99 47-70 41c-39 23-76 42-84 42-7-1-49-16-93-34z"/></g><g fill="#031d6a" transform="matrix(.1 0 0 -.1 0 192)"><path d="M343 1238c-54-27-152-82-217-120L6 1047l45-23c24-13 50-23 57-24 8 0 61 30 119 66s154 93 214 127c60 33 108 61 107 62-2 2-26 10-55 18l-52 16-98-51zm232-94c-118-66-325-202-325-212 0-4 26-22 59-40l58-32 79 57c101 72 199 136 291 188l73 42-59 27c-32 14-62 26-67 26s-54-25-109-56z"/></g></g></svg>